<svg xmlns="http://www.w3.org/2000/svg" width="523.948" height="110.248" viewBox="0 0 523.948 110.248">
  <path id="logo-w" d="M70,74.165V47.243l32.185-29.42,1.666,44.685s7.563,11.657,14.71,11.657,13.878-11.657,13.878-11.657l1.624-61.092H166V74.165s-11.743,35.761-47.439,36.081l-.469,0C82.747,110.252,70,74.165,70,74.165Zm173-1.416V45.826l32.186-29.42,1.665,44.686s7.563,11.657,14.71,11.657,13.878-11.657,13.878-11.657L307.063,0H339V72.749s-11.744,35.761-47.44,36.081l-.468,0C255.748,108.835,243,72.749,243,72.749Zm159.715,34.667L375.654,78.6H349V46.916h53.715a5.585,5.585,0,0,0,3.641-5.563,6.052,6.052,0,0,0-3.641-5.8H361.168L395.583,1.416s39.244,8.164,38.883,38.833-23.091,32.473-23.091,32.473l30.668,34.694ZM174,40.966,213.542,1.416H276L244.056,36.483H207.548V78.115L174,107.416ZM0,1.416H106L73.322,36.142h-39.3V49.659h22.2L0,107.416ZM443.848,106.638,442.666,46.11,486.062,2h29.5l1.532,31.03H474.516V44.579h26.7V67.31h-26.7v8.659h49.432l-28.865,30.669Zm-1.211-62.06.03,1.531-.03.03Z" fill="#fff"/>
</svg>
